<?xml version="1.0" encoding="utf-8"?>
<!-- Generator: Adobe Illustrator 22.0.0, SVG Export Plug-In . SVG Version: 6.00 Build 0)  -->
<svg version="1.1" id="Layer_1" xmlns="http://www.w3.org/2000/svg" xmlns:xlink="http://www.w3.org/1999/xlink" x="0px" y="0px"
	 viewBox="0 0 500 500" style="enable-background:new 0 0 500 500;" xml:space="preserve">
<style type="text/css">
	.st0{fill:#C9C9C9;}
	.st1{fill:#A0A0A0;}
	.st2{fill:#71CCFF;}
	.st3{fill:#231F20;}
	.st4{fill:#F9F9F9;}
	.st5{fill:#7A7979;}
	.st6{fill:#4C4C4C;}
	.st7{fill:#F9B630;}
	.st8{fill:#D88A0E;}
	.st9{fill:#FFEDCC;}
	.st10{fill:#C0E7F9;}
	.st11{fill:#08B26C;}
	.st12{fill:#15A9EA;}
	.st13{fill:none;stroke:#C9C9C9;stroke-width:10;stroke-linecap:round;stroke-linejoin:round;stroke-miterlimit:10;}
	.st14{fill:none;stroke:#231F20;stroke-width:10;stroke-linecap:round;stroke-linejoin:round;stroke-miterlimit:10;}
	.st15{fill:#FFFFFF;}
	.st16{fill:#35EF9F;}
	.st17{fill:#22A6E0;}
	.st18{fill:#FC3A6D;}
	.st19{fill:#FFA9C8;}
	.st20{fill:#038E52;}
	.st21{fill:#E2074B;}
</style>
<g>
	<g>
		<path class="st7" d="M250,117c-73.4,0-133,59.5-133,133s59.5,133,133,133s133-59.5,133-133S323.4,117,250,117z M250,348.4
			c-54.4,0-98.4-44.1-98.4-98.4s44.1-98.4,98.4-98.4s98.4,44.1,98.4,98.4S304.4,348.4,250,348.4z"/>
	</g>
</g>
<g>
	<g>
		<path class="st3" d="M250,388c-76.1,0-138-61.9-138-138c0-27.3,8-53.7,23-76.4c1.5-2.3,4.6-2.9,6.9-1.4c2.3,1.5,2.9,4.6,1.4,6.9
			c-14,21-21.4,45.5-21.4,70.8c0,70.6,57.4,128,128,128c70.6,0,128-57.4,128-128c0-70.6-57.4-128-128-128c-11.7,0-23.2,1.6-34.4,4.7
			c-2.7,0.7-5.4-0.8-6.2-3.5c-0.7-2.7,0.8-5.4,3.5-6.2c12-3.3,24.5-5,37.1-5c76.1,0,138,61.9,138,138S326.1,388,250,388z"/>
	</g>
</g>
<g>
	<g>
		<path class="st3" d="M149.6,167.9c-1.2,0-2.3-0.4-3.3-1.2c-2.1-1.8-2.3-5-0.5-7.1c8.6-9.9,18.6-18.5,29.6-25.6
			c2.3-1.5,5.4-0.8,6.9,1.5c1.5,2.3,0.8,5.4-1.5,6.9c-10.2,6.6-19.5,14.6-27.5,23.8C152.4,167.3,151,167.9,149.6,167.9z"/>
	</g>
</g>
<g>
	<g>
		<path class="st3" d="M193.9,134.4c-1.9,0-3.7-1.1-4.5-2.9c-1.2-2.5-0.1-5.5,2.4-6.6c1.5-0.7,3-1.3,4.4-2c2.5-1.1,5.5,0.1,6.6,2.7
			c1.1,2.5-0.1,5.5-2.7,6.6c-1.4,0.6-2.8,1.2-4.1,1.8C195.4,134.3,194.6,134.4,193.9,134.4z"/>
	</g>
</g>
<g>
	<g>
		<path class="st9" d="M245.6,139.7c-2.7,0-4.9-2.1-5-4.8c-0.1-2.8,2.1-5.1,4.8-5.2c1.5-0.1,3-0.1,4.5-0.1c2.8,0,5,2.2,5,5
			s-2.2,5-5,5c-1.4,0-2.8,0-4.2,0.1C245.8,139.7,245.7,139.7,245.6,139.7z"/>
	</g>
</g>
<g>
	<g>
		<path class="st9" d="M134.7,255c-2.8,0-5-2.2-5-5c0-57.2,40.7-106.9,96.8-118c2.7-0.5,5.3,1.2,5.9,3.9c0.5,2.7-1.2,5.3-3.9,5.9
			C177,152,139.7,197.5,139.7,250C139.7,252.8,137.4,255,134.7,255z"/>
	</g>
</g>
<g>
	<g>
		<path class="st3" d="M250,353.4c-57,0-103.4-46.4-103.4-103.4c0-57,46.4-103.4,103.4-103.4c57,0,103.4,46.4,103.4,103.4
			C353.4,307,307,353.4,250,353.4z M250,156.6c-51.5,0-93.4,41.9-93.4,93.4c0,51.5,41.9,93.4,93.4,93.4c51.5,0,93.4-41.9,93.4-93.4
			C343.4,198.5,301.5,156.6,250,156.6z"/>
	</g>
</g>
<g>
	<g>
		<path class="st7" d="M264.5,98V56.8c0-4.6,1.4-9.2,4.3-12.8c3.3-4.1,5.2-9.3,5.2-14.9c0-14.2-12.3-25.4-26.7-23.8
			c-10.9,1.2-19.7,9.9-21.1,20.8c-0.8,6.8,1.2,13.2,5,18c2.8,3.5,4.3,8,4.3,12.5V98"/>
	</g>
</g>
<g>
	<g>
		<path class="st3" d="M264.5,103c-2.8,0-5-2.2-5-5V56.8c0-5.9,1.9-11.6,5.4-15.9c2.7-3.4,4.1-7.5,4.1-11.8c0-5.4-2.3-10.6-6.3-14.2
			c-4.1-3.7-9.4-5.3-14.9-4.7c-8.6,0.9-15.6,7.9-16.7,16.4c-0.6,5.2,0.8,10.3,4,14.3c3.5,4.3,5.4,9.9,5.4,15.6V98c0,2.8-2.2,5-5,5
			s-5-2.2-5-5V56.5c0-3.5-1.1-6.8-3.2-9.4c-4.9-6.1-7.1-13.9-6.1-21.8c1.6-13.1,12.3-23.7,25.5-25.1c8.2-0.9,16.5,1.7,22.6,7.2
			c6.1,5.5,9.7,13.4,9.7,21.6c0,6.5-2.2,12.9-6.3,18c-2.1,2.6-3.2,6.1-3.2,9.7V98C269.5,100.8,267.3,103,264.5,103z"/>
	</g>
</g>
<g>
	<g>
		<polyline class="st7" points="235.5,177.2 235.5,321.9 264.5,322.8 264.5,177.2 		"/>
	</g>
</g>
<g>
	<g>
		<polyline class="st7" points="291.3,188.2 188.9,290.6 208.7,311.8 311.8,208.7 		"/>
	</g>
</g>
<g>
	<g>
		<polyline class="st7" points="322.8,235.5 178.1,235.5 177.2,264.5 322.8,264.5 		"/>
	</g>
</g>
<g>
	<g>
		<polyline class="st7" points="311.8,291.3 209.4,188.9 188.2,208.7 291.3,311.8 		"/>
	</g>
</g>
<g>
	<g>
		<path class="st3" d="M264.5,327.8c-2.8,0-5-2.2-5-5V177.2c0-2.8,2.2-5,5-5s5,2.2,5,5v145.7C269.5,325.6,267.3,327.8,264.5,327.8z"
			/>
	</g>
</g>
<g>
	<g>
		<path class="st3" d="M235.5,326.9c-2.8,0-5-2.2-5-5V177.2c0-2.8,2.2-5,5-5s5,2.2,5,5v144.8C240.5,324.7,238.3,326.9,235.5,326.9z"
			/>
	</g>
</g>
<g>
	<g>
		<path class="st3" d="M208.7,316.8c-1.3,0-2.6-0.5-3.5-1.5c-2-2-2-5.1,0-7.1l103-103c2-2,5.1-2,7.1,0c2,2,2,5.1,0,7.1l-103,103
			C211.3,316.3,210,316.8,208.7,316.8z"/>
	</g>
</g>
<g>
	<g>
		<path class="st3" d="M188.9,295.6c-1.3,0-2.6-0.5-3.5-1.5c-2-2-2-5.1,0-7.1l102.4-102.4c2-2,5.1-2,7.1,0c2,2,2,5.1,0,7.1
			L192.4,294.1C191.5,295.1,190.2,295.6,188.9,295.6z"/>
	</g>
</g>
<g>
	<g>
		<path class="st3" d="M322.8,269.5H177.2c-2.8,0-5-2.2-5-5s2.2-5,5-5h145.7c2.8,0,5,2.2,5,5S325.6,269.5,322.8,269.5z"/>
	</g>
</g>
<g>
	<g>
		<path class="st3" d="M322.8,240.5H178.1c-2.8,0-5-2.2-5-5s2.2-5,5-5h144.8c2.8,0,5,2.2,5,5S325.6,240.5,322.8,240.5z"/>
	</g>
</g>
<g>
	<g>
		<path class="st3" d="M291.3,316.8c-1.3,0-2.6-0.5-3.5-1.5l-103-103c-2-2-2-5.1,0-7.1c2-2,5.1-2,7.1,0l103,103c2,2,2,5.1,0,7.1
			C293.8,316.3,292.5,316.8,291.3,316.8z"/>
	</g>
</g>
<g>
	<g>
		<path class="st3" d="M311.8,296.3c-1.3,0-2.6-0.5-3.5-1.5L205.9,192.4c-2-2-2-5.1,0-7.1c2-2,5.1-2,7.1,0l102.4,102.4
			c2,2,2,5.1,0,7.1C314.3,295.8,313,296.3,311.8,296.3z"/>
	</g>
</g>
<g>
	<g>
		<path class="st3" d="M248,56.5h-13.1c-2.8,0-5-2.2-5-5s2.2-5,5-5H248c2.8,0,5,2.2,5,5S250.8,56.5,248,56.5z"/>
	</g>
</g>
<g>
	<g>
		<path class="st7" d="M264.5,402v41.2c0,4.6,1.4,9.2,4.3,12.8c3.3,4.1,5.2,9.3,5.2,14.9c0,14.2-12.3,25.4-26.7,23.8
			c-10.9-1.2-19.7-9.9-21.1-20.8c-0.8-6.8,1.2-13.2,5-18c2.8-3.5,4.3-8,4.3-12.5V402"/>
	</g>
</g>
<g>
	<g>
		<path class="st3" d="M249.9,500c-1.1,0-2.1-0.1-3.2-0.2c-13.1-1.5-23.9-12-25.5-25.1c-1-7.9,1.2-15.6,6.1-21.8
			c2-2.6,3.2-5.9,3.2-9.4V402c0-2.8,2.2-5,5-5s5,2.2,5,5v41.5c0,5.8-1.9,11.3-5.4,15.6c-3.2,4-4.6,9.1-4,14.3
			c1.1,8.6,8.1,15.5,16.7,16.4c5.5,0.6,10.8-1.1,14.9-4.7c4-3.6,6.3-8.8,6.3-14.2c0-4.3-1.4-8.4-4.1-11.8c-3.5-4.4-5.4-10-5.4-15.9
			V402c0-2.8,2.2-5,5-5s5,2.2,5,5v41.2c0,3.7,1.1,7.1,3.2,9.7c4.1,5.1,6.3,11.5,6.3,18c0,8.2-3.5,16.1-9.7,21.6
			C264,497.4,257.1,500,249.9,500z"/>
	</g>
</g>
<g>
	<g>
		<path class="st3" d="M248,453.5h-13.1c-2.8,0-5-2.2-5-5s2.2-5,5-5H248c2.8,0,5,2.2,5,5S250.8,453.5,248,453.5z"/>
	</g>
</g>
<g>
	<g>
		<path class="st7" d="M367.7,152.8l29.2-29.2c3.3-3.3,7.5-5.5,12.1-6c5.2-0.6,10.2-2.9,14.2-6.9c10-10,9.3-26.7-2-35.8
			c-8.6-6.9-20.9-7-29.6-0.2c-5.4,4.2-8.5,10.2-9.2,16.3c-0.5,4.5-2.6,8.7-5.8,11.9l-29.4,29.4"/>
	</g>
</g>
<g>
	<g>
		<path class="st3" d="M367.7,157.8c-1.3,0-2.6-0.5-3.5-1.5c-2-2-2-5.1,0-7.1l29.2-29.2c4.2-4.2,9.5-6.8,15.1-7.5
			c4.3-0.5,8.2-2.4,11.3-5.4c3.8-3.8,5.8-9.1,5.5-14.5c-0.3-5.5-2.8-10.4-7.2-13.8c-6.7-5.4-16.6-5.5-23.4-0.2
			c-4.1,3.2-6.7,7.8-7.3,12.9c-0.6,5.5-3.2,10.8-7.3,14.8l-29.4,29.4c-2,2-5.1,2-7.1,0c-2-2-2-5.1,0-7.1L373,99.4
			c2.5-2.5,4-5.6,4.4-8.9c0.9-7.8,4.8-14.8,11.1-19.7c10.4-8.1,25.5-8,35.8,0.3c6.5,5.2,10.4,12.9,10.9,21.1
			c0.5,8.2-2.6,16.3-8.5,22.1c-4.6,4.6-10.7,7.6-17.2,8.3c-3.3,0.4-6.6,2-9.1,4.6l-29.2,29.2C370.3,157.3,369,157.8,367.7,157.8z"/>
	</g>
</g>
<g>
	<g>
		<path class="st3" d="M388.9,113.2c-1.3,0-2.6-0.5-3.5-1.5l-9.3-9.3c-2-2-2-5.1,0-7.1c2-2,5.1-2,7.1,0l9.3,9.3c2,2,2,5.1,0,7.1
			C391.5,112.7,390.2,113.2,388.9,113.2z"/>
	</g>
</g>
<g>
	<g>
		<path class="st7" d="M152.8,367.7l-29.2,29.2c-3.3,3.3-5.5,7.5-6,12.1c-0.6,5.2-2.9,10.2-6.9,14.2c-10,10-26.7,9.3-35.8-2
			c-6.9-8.6-7-20.9-0.2-29.6c4.2-5.4,10.2-8.5,16.3-9.2c4.5-0.5,8.7-2.6,11.9-5.8l29.4-29.4"/>
	</g>
</g>
<g>
	<g>
		<path class="st3" d="M93.7,435.3c-0.5,0-1.1,0-1.6,0c-8.2-0.5-15.9-4.4-21.1-10.9c-8.3-10.3-8.4-25.4-0.3-35.8
			c4.9-6.3,11.9-10.2,19.7-11.1c3.3-0.4,6.4-1.9,8.9-4.4l29.4-29.4c2-2,5.1-2,7.1,0c2,2,2,5.1,0,7.1l-29.4,29.4
			c-4.1,4.1-9.4,6.7-14.8,7.3c-5.1,0.6-9.7,3.2-12.9,7.3c-5.3,6.8-5.2,16.7,0.2,23.4c3.5,4.3,8.4,6.9,13.8,7.2
			c5.4,0.3,10.7-1.7,14.5-5.5c3.1-3.1,4.9-7,5.4-11.3c0.6-5.5,3.3-10.9,7.5-15.1l29.2-29.2c2-2,5.1-2,7.1,0c2,2,2,5.1,0,7.1
			l-29.2,29.2c-2.6,2.6-4.2,5.8-4.6,9.2c-0.7,6.5-3.7,12.6-8.3,17.2C108.8,432.2,101.4,435.3,93.7,435.3z"/>
	</g>
</g>
<g>
	<g>
		<path class="st3" d="M108.2,393.9c-1.3,0-2.6-0.5-3.5-1.5l-9.3-9.3c-2-2-2-5.1,0-7.1c2-2,5.1-2,7.1,0l9.3,9.3c2,2,2,5.1,0,7.1
			C110.8,393.5,109.5,393.9,108.2,393.9z"/>
	</g>
</g>
<g>
	<g>
		<path class="st7" d="M402,264.5h41.2c4.6,0,9.2,1.4,12.8,4.3c4.1,3.3,9.3,5.2,14.9,5.2c14.2,0,25.4-12.3,23.8-26.7
			c-1.2-10.9-9.9-19.7-20.8-21.1c-6.8-0.8-13.2,1.2-18,5c-3.5,2.8-8,4.3-12.5,4.3H402"/>
	</g>
</g>
<g>
	<g>
		<path class="st3" d="M471,279c-6.5,0-12.9-2.2-18-6.3c-2.6-2.1-6.1-3.2-9.7-3.2H402c-2.8,0-5-2.2-5-5s2.2-5,5-5h41.2
			c5.9,0,11.6,1.9,15.9,5.4c3.4,2.7,7.5,4.1,11.8,4.1c5.4,0,10.6-2.3,14.2-6.3c3.7-4.1,5.3-9.4,4.7-14.9
			c-0.9-8.6-7.9-15.6-16.4-16.7c-5.2-0.6-10.3,0.8-14.3,4c-4.3,3.5-9.9,5.4-15.6,5.4H402c-2.8,0-5-2.2-5-5s2.2-5,5-5h41.5
			c3.5,0,6.8-1.1,9.4-3.2c6.1-4.9,13.9-7.1,21.8-6.1c13.1,1.6,23.7,12.3,25.1,25.5c0.9,8.2-1.7,16.5-7.2,22.6
			C487.1,275.5,479.2,279,471,279z"/>
	</g>
</g>
<g>
	<g>
		<path class="st3" d="M448.5,253c-2.8,0-5-2.2-5-5v-13.1c0-2.8,2.2-5,5-5s5,2.2,5,5V248C453.5,250.8,451.3,253,448.5,253z"/>
	</g>
</g>
<g>
	<g>
		<path class="st7" d="M98,264.5H56.8c-4.6,0-9.2,1.4-12.8,4.3c-4.1,3.3-9.3,5.2-14.9,5.2c-14.2,0-25.4-12.3-23.8-26.7
			c1.2-10.9,9.9-19.7,20.8-21.1c6.8-0.8,13.2,1.2,18,5c3.5,2.8,8,4.3,12.5,4.3H98"/>
	</g>
</g>
<g>
	<g>
		<path class="st3" d="M29,279c-8.2,0-16.1-3.5-21.6-9.7c-5.5-6.1-8.1-14.4-7.2-22.6c1.5-13.1,12-23.9,25.1-25.5
			c7.9-1,15.6,1.2,21.8,6.1c2.6,2,5.9,3.2,9.4,3.2H98c2.8,0,5,2.2,5,5s-2.2,5-5,5H56.5c-5.8,0-11.3-1.9-15.6-5.4
			c-4-3.2-9.1-4.6-14.3-4c-8.6,1.1-15.5,8.1-16.4,16.7c-0.6,5.5,1.1,10.8,4.7,14.9c3.6,4,8.8,6.3,14.2,6.3c4.3,0,8.4-1.4,11.8-4.1
			c4.4-3.5,10-5.4,15.9-5.4H98c2.8,0,5,2.2,5,5s-2.2,5-5,5H56.8c-3.7,0-7.1,1.1-9.7,3.2C41.9,276.8,35.5,279,29,279z"/>
	</g>
</g>
<g>
	<g>
		<path class="st3" d="M51.5,253c-2.8,0-5-2.2-5-5v-13.1c0-2.8,2.2-5,5-5s5,2.2,5,5V248C56.5,250.8,54.3,253,51.5,253z"/>
	</g>
</g>
<g>
	<g>
		<path class="st7" d="M347.2,367.7l29.2,29.2c3.3,3.3,5.5,7.5,6,12.1c0.6,5.2,2.9,10.2,6.9,14.2c10,10,26.7,9.3,35.8-2
			c6.9-8.6,7-20.9,0.2-29.6c-4.2-5.4-10.2-8.5-16.3-9.2c-4.5-0.5-8.7-2.6-11.9-5.8l-29.4-29.4"/>
	</g>
</g>
<g>
	<g>
		<path class="st3" d="M406.3,435.3c-7.7,0-15.1-3-20.5-8.5c-4.6-4.6-7.6-10.7-8.3-17.2c-0.4-3.3-2-6.6-4.6-9.1l-29.2-29.2
			c-2-2-2-5.1,0-7.1c2-2,5.1-2,7.1,0l29.2,29.2c4.2,4.2,6.8,9.5,7.5,15.1c0.5,4.3,2.4,8.2,5.4,11.3c3.8,3.8,9.1,5.8,14.5,5.5
			c5.5-0.3,10.4-2.8,13.8-7.2c5.4-6.7,5.5-16.6,0.2-23.4c-3.2-4.1-7.8-6.7-12.9-7.3c-5.5-0.6-10.8-3.2-14.8-7.3l-29.4-29.4
			c-2-2-2-5.1,0-7.1c2-2,5.1-2,7.1,0l29.4,29.4c2.5,2.5,5.6,4,8.9,4.4c7.8,0.9,14.8,4.8,19.7,11.1c8.1,10.4,8,25.5-0.3,35.8
			c-5.2,6.5-12.9,10.4-21.1,10.9C407.3,435.3,406.8,435.3,406.3,435.3z"/>
	</g>
</g>
<g>
	<g>
		<path class="st3" d="M391.8,393.9c-1.3,0-2.6-0.5-3.5-1.5c-2-2-2-5.1,0-7.1l9.3-9.3c2-2,5.1-2,7.1,0c2,2,2,5.1,0,7.1l-9.3,9.3
			C394.3,393.5,393.1,393.9,391.8,393.9z"/>
	</g>
</g>
<g>
	<g>
		<path class="st7" d="M132.3,152.8l-29.2-29.2c-3.3-3.3-7.5-5.5-12.1-6c-5.2-0.6-10.2-2.9-14.2-6.9c-10-10-9.3-26.7,2-35.8
			c8.6-6.9,20.9-7,29.6-0.2c5.4,4.2,8.5,10.2,9.2,16.3c0.5,4.5,2.6,8.7,5.8,11.9l29.4,29.4"/>
	</g>
</g>
<g>
	<g>
		<path class="st3" d="M132.3,157.8c-1.3,0-2.6-0.5-3.5-1.5l-29.2-29.2c-2.6-2.6-5.8-4.2-9.2-4.6c-6.5-0.7-12.6-3.7-17.2-8.3
			c-5.8-5.8-8.9-13.9-8.4-22.1c0.5-8.2,4.4-15.9,10.9-21.1c10.3-8.3,25.4-8.4,35.8-0.3c6.3,4.9,10.2,11.9,11.1,19.7
			c0.4,3.3,1.9,6.4,4.4,8.9l29.4,29.4c2,2,2,5.1,0,7.1c-2,2-5.1,2-7.1,0l-29.4-29.4c-4.1-4.1-6.7-9.4-7.3-14.8
			c-0.6-5.1-3.2-9.7-7.3-12.9c-6.8-5.3-16.7-5.2-23.4,0.2c-4.3,3.5-6.9,8.4-7.2,13.8c-0.3,5.4,1.7,10.7,5.5,14.5
			c3.1,3.1,7,4.9,11.3,5.4c5.5,0.6,10.9,3.3,15.1,7.5l29.2,29.2c2,2,2,5.1,0,7.1C134.8,157.3,133.5,157.8,132.3,157.8z"/>
	</g>
</g>
<g>
	<g>
		<path class="st3" d="M111.1,113.2c-1.3,0-2.6-0.5-3.5-1.5c-2-2-2-5.1,0-7.1l9.3-9.3c2-2,5.1-2,7.1,0c2,2,2,5.1,0,7.1l-9.3,9.3
			C113.6,112.7,112.3,113.2,111.1,113.2z"/>
	</g>
</g>
<g>
	<g>
		<circle class="st15" cx="250" cy="250" r="33"/>
	</g>
</g>
<g>
	<g>
		<path class="st3" d="M250,288c-21,0-38-17-38-38s17-38,38-38s38,17,38,38S271,288,250,288z M250,222c-15.4,0-28,12.6-28,28
			s12.6,28,28,28s28-12.6,28-28S265.4,222,250,222z"/>
	</g>
</g>
</svg>
